<svg width="28" height="28" viewBox="0 0 28 28" fill="none" xmlns="http://www.w3.org/2000/svg">
<path d="M16.1375 19.3295C16.3784 19.4402 16.6499 19.4654 16.9071 19.4012C17.1644 19.3369 17.3921 19.187 17.5527 18.976L17.9668 18.4335C18.1842 18.1437 18.466 17.9085 18.79 17.7465C19.114 17.5845 19.4713 17.5002 19.8335 17.5002H23.3335C23.9523 17.5002 24.5458 17.746 24.9834 18.1836C25.421 18.6212 25.6668 19.2147 25.6668 19.8335V23.3335C25.6668 23.9523 25.421 24.5458 24.9834 24.9834C24.5458 25.421 23.9523 25.6668 23.3335 25.6668C17.764 25.6668 12.4225 23.4543 8.48425 19.5161C4.54599 15.5778 2.3335 10.2364 2.3335 4.66683C2.3335 4.04799 2.57933 3.4545 3.01691 3.01691C3.4545 2.57933 4.04799 2.3335 4.66683 2.3335H8.16683C8.78567 2.3335 9.37916 2.57933 9.81675 3.01691C10.2543 3.4545 10.5002 4.04799 10.5002 4.66683V8.16683C10.5002 8.52907 10.4158 8.88633 10.2538 9.21033C10.0918 9.53432 9.85662 9.81615 9.56683 10.0335L9.02083 10.443C8.80665 10.6065 8.65569 10.8392 8.59359 11.1014C8.53149 11.3636 8.56208 11.6393 8.68016 11.8815C10.2746 15.12 12.897 17.7391 16.1375 19.3295Z" stroke="#F9F9F9" stroke-width="2" stroke-linecap="round" stroke-linejoin="round"/>
</svg>
