<svg width="30" height="30" viewBox="0 0 30 30" fill="none" xmlns="http://www.w3.org/2000/svg">
<path d="M14.4061 2.86862C14.4608 2.75794 14.5455 2.66478 14.6504 2.59965C14.7553 2.53451 14.8763 2.5 14.9998 2.5C15.1233 2.5 15.2443 2.53451 15.3492 2.59965C15.4542 2.66478 15.5388 2.75794 15.5936 2.86862L18.4811 8.71737C18.6713 9.10233 18.9521 9.43538 19.2993 9.68793C19.6466 9.94049 20.05 10.105 20.4748 10.1674L26.9323 11.1124C27.0547 11.1301 27.1696 11.1817 27.2642 11.2614C27.3587 11.341 27.4291 11.4456 27.4673 11.5631C27.5056 11.6807 27.5101 11.8066 27.4805 11.9267C27.4509 12.0467 27.3883 12.1561 27.2998 12.2424L22.6298 16.7899C22.3218 17.09 22.0914 17.4605 21.9584 17.8694C21.8253 18.2783 21.7936 18.7135 21.8661 19.1374L22.9686 25.5624C22.9902 25.6847 22.9769 25.8106 22.9304 25.9257C22.8839 26.0409 22.806 26.1406 22.7055 26.2136C22.605 26.2866 22.486 26.3299 22.3621 26.3385C22.2382 26.3471 22.1144 26.3207 22.0048 26.2624L16.2323 23.2274C15.852 23.0277 15.4288 22.9233 14.9992 22.9233C14.5696 22.9233 14.1464 23.0277 13.7661 23.2274L7.99481 26.2624C7.88522 26.3204 7.76155 26.3465 7.63787 26.3377C7.51419 26.3289 7.39546 26.2856 7.29518 26.2126C7.1949 26.1397 7.1171 26.0401 7.07063 25.9251C7.02416 25.8102 7.01088 25.6845 7.03231 25.5624L8.13356 19.1386C8.2063 18.7145 8.17479 18.2791 8.04173 17.8699C7.90867 17.4607 7.67807 17.0901 7.36981 16.7899L2.69981 12.2436C2.61055 12.1574 2.5473 12.0479 2.51726 11.9275C2.48722 11.8071 2.4916 11.6806 2.52991 11.5626C2.56821 11.4446 2.63889 11.3397 2.7339 11.2598C2.82892 11.18 2.94444 11.1285 3.06731 11.1111L9.52356 10.1674C9.94888 10.1055 10.3528 9.94119 10.7005 9.6886C11.0483 9.43601 11.3294 9.10271 11.5198 8.71737L14.4061 2.86862Z" stroke="#FCF9F1" stroke-width="2" stroke-linecap="round" stroke-linejoin="round"/>
</svg>
