<svg width="30" height="30" viewBox="0 0 30 30" fill="none" xmlns="http://www.w3.org/2000/svg">
<path d="M18.3751 7.87522C18.1461 8.10888 18.0178 8.42303 18.0178 8.75022C18.0178 9.07741 18.1461 9.39156 18.3751 9.62522L20.3751 11.6252C20.6088 11.8543 20.9229 11.9825 21.2501 11.9825C21.5773 11.9825 21.8914 11.8543 22.1251 11.6252L26.0076 7.74397C26.4076 7.34147 27.0863 7.46897 27.2363 8.01647C27.614 9.39006 27.5927 10.8428 27.1748 12.2047C26.757 13.5666 25.9599 14.7813 24.8768 15.7068C23.7938 16.6322 22.4696 17.23 21.0592 17.4303C19.6487 17.6306 18.2105 17.425 16.9126 16.8377L7.0251 26.7252C6.52781 27.2223 5.85342 27.5015 5.15028 27.5014C4.44713 27.5013 3.77284 27.2219 3.27572 26.7246C2.77861 26.2273 2.49939 25.5529 2.49951 24.8498C2.49963 24.1466 2.77906 23.4723 3.27635 22.9752L13.1638 13.0877C12.5765 11.7899 12.371 10.3516 12.5713 8.94116C12.7715 7.53074 13.3694 6.20653 14.2948 5.12349C15.2202 4.04044 16.4349 3.24336 17.7969 2.8255C19.1588 2.40765 20.6115 2.3863 21.9851 2.76397C22.5326 2.91397 22.6601 3.59147 22.2588 3.99397L18.3751 7.87522Z" stroke="#FCF9F1" stroke-width="2" stroke-linecap="round" stroke-linejoin="round"/>
</svg>
