<svg width="36" height="46" viewBox="0 0 36 46" fill="none" xmlns="http://www.w3.org/2000/svg">
<path d="M22.471 20.7524C22.471 18.2799 20.448 16.2569 17.9755 16.2569C15.5029 16.2569 13.48 18.2799 13.48 20.7524C13.48 23.225 15.5029 25.2479 17.9755 25.2479C20.448 25.2479 22.471 23.225 22.471 20.7524ZM8.93951 37.0486C8.28766 35.0256 7.65829 32.688 7.23122 30.3054L4.48897 32.1485V38.8468L8.93951 37.0486ZM17.9755 0.522705C17.9755 0.522705 29.2142 5.0182 29.2142 25.2479L33.9569 28.4173C35.2157 29.2489 35.9574 30.665 35.9574 32.1485V45.4777L24.7187 40.9822H11.2322L-0.00653076 45.4777V32.1485C-0.00653076 30.6425 0.735226 29.2489 1.99396 28.4173L6.73671 25.2479C6.73671 5.0182 17.9755 0.522705 17.9755 0.522705ZM17.9755 5.82739C17.9755 5.82739 11.2322 10.3678 11.2322 25.2479C11.2322 30.3054 13.48 36.4867 13.48 36.4867H22.471C22.471 36.4867 24.7187 30.3054 24.7187 25.2479C24.7187 10.3678 17.9755 5.82739 17.9755 5.82739ZM31.4619 38.8468V32.1485L28.7197 30.3279C28.2926 32.688 27.6633 35.0481 27.0114 37.0711L31.4619 38.8468Z" fill="#FCF9F1"/>
</svg>
