<svg width="48" height="47" viewBox="0 0 48 47" fill="none" xmlns="http://www.w3.org/2000/svg">
<path d="M23.7427 46.7255C20.5112 46.7255 17.4744 46.1119 14.6322 44.8847C11.79 43.6575 9.31771 41.9935 7.21528 39.8926C5.11285 37.7918 3.44882 35.3195 2.22318 32.4757C0.997544 29.632 0.383946 26.5952 0.382388 23.3652C0.380831 20.1353 0.994429 17.0984 2.22318 14.2547C3.45194 11.411 5.11597 8.93865 7.21528 6.83778C9.3146 4.73691 11.7869 3.07287 14.6322 1.84568C17.4775 0.618481 20.5143 0.00488281 23.7427 0.00488281C26.9711 0.00488281 30.008 0.618481 32.8532 1.84568C35.6985 3.07287 38.1708 4.73691 40.2701 6.83778C42.3695 8.93865 44.0343 11.411 45.2646 14.2547C46.4949 17.0984 47.1077 20.1353 47.103 23.3652C47.0984 26.5952 46.4848 29.632 45.2622 32.4757C44.0397 35.3195 42.3757 37.7918 40.2701 39.8926C38.1646 41.9935 35.6923 43.6583 32.8532 44.8871C30.0142 46.1158 26.9773 46.7287 23.7427 46.7255ZM23.7427 42.0535C28.9599 42.0535 33.3788 40.243 36.9997 36.6222C40.6205 33.0013 42.431 28.5823 42.431 23.3652C42.431 18.1481 40.6205 13.7291 36.9997 10.1082C33.3788 6.48737 28.9599 4.67695 23.7427 4.67695C18.5256 4.67695 14.1066 6.48737 10.4857 10.1082C6.86488 13.7291 5.05445 18.1481 5.05445 23.3652C5.05445 28.5823 6.86488 33.0013 10.4857 36.6222C14.1066 40.243 18.5256 42.0535 23.7427 42.0535ZM23.7427 37.3814C19.8493 37.3814 16.5399 36.0187 13.8146 33.2933C11.0892 30.568 9.72652 27.2586 9.72652 23.3652C9.72652 19.4718 11.0892 16.1624 13.8146 13.4371C16.5399 10.7117 19.8493 9.34901 23.7427 9.34901C27.6361 9.34901 30.9455 10.7117 33.6709 13.4371C36.3962 16.1624 37.7589 19.4718 37.7589 23.3652C37.7589 27.2586 36.3962 30.568 33.6709 33.2933C30.9455 36.0187 27.6361 37.3814 23.7427 37.3814ZM23.7427 32.7093C26.3123 32.7093 28.5121 31.7944 30.342 29.9645C32.1719 28.1346 33.0868 25.9348 33.0868 23.3652C33.0868 20.7956 32.1719 18.5958 30.342 16.7659C28.5121 14.936 26.3123 14.0211 23.7427 14.0211C21.1731 14.0211 18.9733 14.936 17.1434 16.7659C15.3135 18.5958 14.3986 20.7956 14.3986 23.3652C14.3986 25.9348 15.3135 28.1346 17.1434 29.9645C18.9733 31.7944 21.1731 32.7093 23.7427 32.7093ZM23.7427 28.0373C22.4579 28.0373 21.3584 27.5802 20.4442 26.666C19.5301 25.7519 19.0722 24.6516 19.0706 23.3652C19.0691 22.0788 19.527 20.9793 20.4442 20.0667C21.3615 19.1541 22.461 18.6963 23.7427 18.6931C25.0244 18.69 26.1247 19.1479 27.0435 20.0667C27.9624 20.9856 28.4195 22.0851 28.4148 23.3652C28.4101 24.6454 27.953 25.7456 27.0435 26.666C26.134 27.5864 25.0338 28.0435 23.7427 28.0373Z" fill="#FCF9F1"/>
</svg>
